PathFileType  4	(X/Y/Z) C:\Users\antoi\Documents\MyRepositories\mobilecap\ResultsAnalysis
DataRate	CameraRate	NumFrames	NumMarkers	Units	OrigDataRate	OrigDataStartFrame	OrigNumFrames
100.0	100.0	4	51	mm	100.0	99	197
Frame#	Time	r_knee			r_shank_antsup			r_ankle			r_calc			r_5meta			r_toe			L_knee			L_shank_antsup			L_ankle			L_calc			L_5meta			L_toe			r_sh2			r_sh3			r_sh4			L_sh2			L_sh3			r_thigh1			r_thigh2			r_thigh3			r_thigh4			r_thigh5			L_thigh1			L_thigh2			L_thigh3			L_thigh4			r.ASIS			r.PSIS			L.ASIS			L.PSIS			C7			R_Shoulder			L_Shoulder			R_Sternum			L_Sternum			R_humerus			R_elbow_med			R_elbow_lat			R_forearm			R_wrist_radius			R_wrist_ulna			L_humerus			L_elbow_med			L_elbow_lat			L_forearm			L_wrist_radius			L_wrist_ulna			R_HJC			L_HJC			R_HJC_reg			L_HJC_reg			
		X1	Y1	Z1	X2	Y2	Z2	X3	Y3	Z3	X4	Y4	Z4	X5	Y5	Z5	X6	Y6	Z6	X7	Y7	Z7	X8	Y8	Z8	X9	Y9	Z9	X10	Y10	Z10	X11	Y11	Z11	X12	Y12	Z12	X13	Y13	Z13	X14	Y14	Z14	X15	Y15	Z15	X16	Y16	Z16	X17	Y17	Z17	X18	Y18	Z18	X19	Y19	Z19	X20	Y20	Z20	X21	Y21	Z21	X22	Y22	Z22	X23	Y23	Z23	X24	Y24	Z24	X25	Y25	Z25	X26	Y26	Z26	X27	Y27	Z27	X28	Y28	Z28	X29	Y29	Z29	X30	Y30	Z30	X31	Y31	Z31	X32	Y32	Z32	X33	Y33	Z33	X34	Y34	Z34	X35	Y35	Z35	X36	Y36	Z36	X37	Y37	Z37	X38	Y38	Z38	X39	Y39	Z39	X40	Y40	Z40	X41	Y41	Z41	X42	Y42	Z42	X43	Y43	Z43	X44	Y44	Z44	X45	Y45	Z45	X46	Y46	Z46	X47	Y47	Z47	X48	Y48	Z48	X49	Y49	Z49	X50	Y50	Z50	X51	Y51	Z51	

99	0.98000000	-88.81092	441.46019	-391.16587	-53.13143	364.42631	-407.60126	-264.79142	103.99674	-378.00477	-352.18056	73.26641	-406.32580	-179.32520	46.33703	-340.14182	-127.22476	66.03090	-397.40370	-115.47139	439.23759	-759.99172	-92.60974	348.26029	-771.40551	-296.42053	114.57644	-763.22716	-379.25242	82.15423	-717.35156	-217.48302	41.77491	-810.56531	-168.75006	57.56122	-757.95162	-119.88120	275.30918	-375.48591	-108.50037	415.93430	-368.21889	-178.45850	320.55692	-358.02186	-167.17563	397.10653	-776.38533	-224.80501	290.38557	-786.82913	-292.16290	679.46133	-377.78572	-206.77413	607.59273	-379.60421	-228.43575	544.67985	-362.08156	-366.10810	593.54756	-374.73763	-274.07975	518.40860	-381.33710	-300.64425	635.75727	-784.29784	-187.13210	556.03061	-774.36443	-364.21685	547.51343	-736.51066	-245.89247	469.38891	-743.37672	-321.66271	751.79826	-441.79588	-507.77348	813.19318	-509.98025	-334.55150	744.32337	-683.49709	-517.89847	820.51228	-608.80294	-310.31983	1199.82019	-605.16595	-207.90805	1151.12017	-439.12501	-237.92379	1130.72168	-773.63928	-180.93440	1113.18762	-580.95239	-180.13616	1110.02135	-628.65115	-256.30136	1046.82060	-349.05871	-382.10359	860.42643	-347.51051	-353.74808	880.76798	-278.95982	-224.04962	839.78200	-322.84842	-120.30801	801.24562	-373.84977	-118.71334	767.68980	-362.34856	-270.24628	1026.46899	-839.09028	-360.79019	807.26005	-804.32178	-345.43505	835.92592	-881.20392	-234.43430	834.52815	-845.69002	-102.06570	810.93309	-795.93627	-97.12531	786.60892	-821.88963	-410.10188	682.78181	-458.04879	-419.70587	681.96065	-664.29336	-398.56137	678.80466	-472.65112	-414.80697	690.55038	-631.21651	
100	0.99000000	-84.57022	439.99135	-390.36138	-50.60099	361.62180	-407.85987	-264.85654	103.71422	-378.21917	-352.27684	73.06492	-406.39604	-179.42441	46.32881	-340.18226	-127.34116	66.05767	-397.34240	-110.40102	438.98788	-760.40280	-89.95316	346.30581	-771.63986	-296.02010	114.63736	-763.07507	-379.06975	82.33045	-717.08485	-217.54933	41.81155	-810.39608	-168.68987	57.40159	-757.90774	-118.31700	273.30903	-375.54049	-104.53449	414.08594	-367.47849	-176.25699	319.18758	-357.67389	-164.03588	395.79700	-776.40571	-222.90448	289.17227	-786.08868	-296.32605	669.98324	-375.45188	-208.81869	600.39436	-379.17071	-229.06318	536.96171	-362.94511	-367.94395	582.21438	-375.18757	-274.10250	509.53478	-381.23620	-302.22781	628.67342	-784.55604	-186.60065	552.11654	-774.74910	-363.58467	538.93214	-736.39954	-243.05762	464.36481	-743.30155	-322.02218	740.01632	-442.29460	-507.61485	805.16976	-509.83786	-337.06815	733.09034	-682.78913	-517.55083	812.79527	-608.91206	-301.19386	1187.22124	-605.99919	-198.12473	1139.00067	-439.84462	-227.17485	1116.71351	-773.54511	-173.14764	1099.80640	-580.91967	-171.88729	1096.03747	-628.32462	-238.72248	1031.00117	-351.93987	-357.63758	839.24536	-351.10362	-325.93715	858.66659	-283.11158	-196.78851	826.04005	-333.45088	-93.91384	793.98451	-391.04768	-89.13880	761.11988	-378.95815	-253.68551	1010.99327	-837.39186	-340.06172	790.60831	-801.01301	-322.58969	817.38481	-878.07776	-214.12952	821.30616	-837.66658	-81.64256	802.71171	-782.08588	-75.76574	779.05489	-807.95686	-412.37448	672.94650	-457.97558	-422.71388	672.23091	-664.18239	-401.22700	668.86042	-473.02120	-417.05405	681.01289	-630.87050	
101	1.00000000	-82.42778	438.74487	-389.61369	-49.02500	359.94356	-406.78856	-264.94283	103.44777	-378.33870	-352.37593	72.81847	-406.32053	-179.48381	46.28413	-340.16389	-127.41314	66.14582	-397.14045	-107.29341	438.34239	-760.50851	-88.24376	343.42187	-770.89174	-296.51276	113.66844	-762.71814	-379.55220	80.84579	-716.81775	-217.88038	41.66766	-810.37480	-169.01521	57.40164	-757.83706	-117.41963	271.89717	-374.96740	-102.96090	412.63642	-367.13738	-175.30856	318.14255	-357.91655	-161.91942	393.57132	-776.37813	-221.87484	286.45711	-785.19781	-301.04415	663.71040	-375.72049	-211.45257	596.86154	-379.36577	-229.40523	533.23110	-362.22344	-369.83142	573.72801	-374.51693	-273.89336	504.29539	-378.68924	-304.35319	623.15529	-784.75700	-186.76261	549.59204	-774.54592	-363.33841	532.04829	-736.43467	-240.93693	460.53773	-743.30813	-322.95998	729.04040	-442.80719	-507.70851	798.26469	-509.70891	-340.53371	722.76326	-681.31295	-517.46441	806.38404	-609.07366	-292.84514	1174.72579	-606.49214	-188.43312	1127.97407	-440.57527	-216.95122	1104.17168	-773.04358	-166.00354	1086.54308	-580.79896	-164.54730	1082.38388	-627.86560	-221.67551	1016.90880	-354.65379	-333.47131	819.45883	-354.31362	-298.20639	839.13528	-287.23334	-169.89026	814.93613	-344.18387	-68.45035	789.18655	-406.96813	-60.68811	756.92320	-394.75322	-238.17239	997.52298	-835.92622	-320.47950	775.13712	-799.68629	-298.95684	800.92586	-876.30672	-194.15110	810.43041	-830.89084	-62.49412	797.27969	-768.50435	-54.95466	774.52831	-794.26021	-415.45468	664.21344	-457.66115	-426.50373	663.53030	-663.84121	-404.57580	659.94665	-473.34858	-419.95825	672.73889	-629.96517	
102	1.01000000	-81.67928	437.66721	-388.69241	-47.94036	358.97245	-404.95820	-264.99930	103.19053	-378.40402	-352.47571	72.64318	-406.24900	-179.53708	46.27741	-340.06723	-127.44984	66.18667	-396.94028	-106.32350	436.54541	-760.27669	-87.38340	339.86298	-769.68867	-297.67659	112.00214	-762.16955	-380.56589	78.13637	-716.51127	-218.38015	41.45927	-810.43952	-169.69795	57.54463	-757.66338	-116.97680	271.08943	-373.99747	-102.53784	411.60564	-366.76868	-174.90717	317.40599	-358.14955	-160.71772	390.57189	-776.25486	-221.39244	283.40049	-784.92832	-304.94386	659.96501	-377.52195	-213.87702	595.71439	-379.59769	-229.71247	532.14278	-360.42418	-371.29243	568.07339	-374.12660	-273.50577	501.57788	-375.74595	-306.13636	618.66516	-784.44334	-187.34910	547.30701	-774.07441	-363.46868	526.72846	-736.85044	-239.83399	457.13432	-743.44787	-324.59010	719.43662	-443.18465	-508.11058	792.14794	-509.57924	-343.74252	714.15072	-680.07228	-517.56312	800.81807	-609.06265	-285.29287	1162.54740	-606.31527	-178.95287	1117.84326	-441.11555	-207.44608	1092.86784	-772.10178	-159.76063	1073.99028	-580.23947	-158.36665	1069.64172	-627.79618	-204.84522	1004.17030	-357.26764	-308.66046	801.71384	-357.36157	-270.56635	821.56985	-291.43346	-143.83869	805.86567	-354.67135	-43.79986	785.78793	-421.06052	-33.68963	754.02819	-409.24565	-223.71923	985.77192	-834.59395	-300.90316	760.34442	-800.02021	-274.67155	786.29500	-875.31817	-173.98641	801.42981	-825.20435	-44.57379	793.62119	-755.74332	-34.68781	772.14415	-781.65983	-418.61536	656.52187	-457.51750	-429.99995	656.26727	-663.68365	-408.01595	652.20298	-473.78348	-422.80994	665.75841	-629.38025	
